rotated_Sprint_05400001_forces_filt10Hz.mot
version=1
nRows=43
nColumns=19
inDegrees=yes
endheader
time	R_ground_force_vx	R_ground_force_vy	R_ground_force_vz	R_ground_force_px	R_ground_force_py	R_ground_force_pz	R_ground_torque_x	R_ground_torque_y	R_ground_torque_z	L_ground_force_vx	L_ground_force_vy	L_ground_force_vz	L_ground_force_px	L_ground_force_py	L_ground_force_pz	L_ground_torque_x	L_ground_torque_y	L_ground_torque_z	
0.000000	242.096646	2076.076511	-93.016766	  0.775507	  0.000000	 -0.264740	  0.000000	 60.808496	  0.000000	  0.000000	  0.000000	  0.000000	  0.604550	  0.000000	 -0.480320	  0.000000	  0.000000	  0.000000
0.000500	243.835545	2064.774476	-90.799327	  0.774627	  0.000000	 -0.264667	  0.000000	 59.246038	  0.000000	  0.000000	  0.000000	  0.000000	  0.605819	 -0.000000	 -0.478337	  0.000000	  0.000000	  0.000000
0.001000	245.584863	2053.225922	-88.583353	  0.773726	  0.000000	 -0.264595	  0.000000	 57.679551	  0.000000	  0.000000	  0.000000	  0.000000	  0.607089	 -0.000000	 -0.476355	  0.000000	  0.000000	  0.000000
0.001500	247.343399	2041.430904	-86.370792	  0.772803	  0.000000	 -0.264522	  0.000000	 56.110341	  0.000000	  0.000000	  0.000000	  0.000000	  0.608358	 -0.000000	 -0.474372	  0.000000	  0.000000	  0.000000
0.002000	249.109891	2029.389632	-84.163591	  0.771858	  0.000000	 -0.264450	  0.000000	 54.539756	  0.000000	  0.000000	  0.000000	  0.000000	  0.609627	 -0.000000	 -0.472390	  0.000000	  0.000000	  0.000000
0.002500	250.883013	2017.102463	-81.963686	  0.770890	  0.000000	 -0.264378	  0.000000	 52.969176	  0.000000	  0.000000	  0.000000	  0.000000	  0.610896	  0.000000	 -0.470407	  0.000000	  0.000000	  0.000000
0.003000	252.661376	2004.569902	-79.772986	  0.769900	  0.000000	 -0.264306	  0.000000	 51.400014	  0.000000	  0.000000	  0.000000	  0.000000	  0.612166	  0.000000	 -0.468424	  0.000000	  0.000000	  0.000000
0.003500	254.443529	1991.792597	-77.593371	  0.768886	  0.000000	 -0.264234	  0.000000	 49.833711	  0.000000	  0.000000	  0.000000	  0.000000	  0.613435	  0.000000	 -0.466442	  0.000000	  0.000000	  0.000000
0.004000	256.227969	1978.771341	-75.426674	  0.767848	  0.000000	 -0.264162	  0.000000	 48.271729	  0.000000	  0.000000	  0.000000	  0.000000	  0.614704	  0.000000	 -0.464459	  0.000000	  0.000000	  0.000000
0.004500	258.013140	1965.507073	-73.274682	  0.766786	  0.000000	 -0.264091	  0.000000	 46.715543	  0.000000	  0.000000	  0.000000	  0.000000	  0.615974	  0.000000	 -0.462477	  0.000000	  0.000000	  0.000000
0.005000	259.797446	1952.000883	-71.139127	  0.765700	  0.000000	 -0.264021	  0.000000	 45.166640	  0.000000	  0.000000	  0.000000	  0.000000	  0.617243	  0.000000	 -0.460494	  0.000000	  0.000000	  0.000000
0.005500	261.579250	1938.254020	-69.021686	  0.764589	  0.000000	 -0.263950	  0.000000	 43.626501	  0.000000	  0.000000	  0.000000	  0.000000	  0.618635	  0.000000	 -0.458514	  0.000000	  0.000000	  0.000000
0.006000	263.356875	1924.267891	-66.923983	  0.763453	  0.000000	 -0.263881	  0.000000	 42.096605	  0.000000	  0.000000	  0.000000	  0.000000	  0.620028	  0.000000	 -0.456535	  0.000000	  0.000000	  0.000000
0.006500	265.128612	1910.044072	-64.847591	  0.762290	  0.000000	 -0.263811	  0.000000	 40.578416	  0.000000	  0.000000	  0.000000	  0.000000	  0.621420	  0.000000	 -0.454555	  0.000000	  0.000000	  0.000000
0.007000	266.892715	1895.584302	-62.794037	  0.761102	  0.000000	 -0.263743	  0.000000	 39.073385	  0.000000	  0.000000	  0.000000	  0.000000	  0.622812	  0.000000	 -0.452575	  0.000000	  0.000000	  0.000000
0.007500	268.647409	1880.890486	-60.764810	  0.759887	  0.000000	 -0.263675	  0.000000	 37.582943	  0.000000	  0.000000	  0.000000	  0.000000	  0.624205	  0.000000	 -0.450596	  0.000000	  0.000000	  0.000000
0.008000	270.390895	1865.964700	-58.761370	  0.758644	  0.000000	 -0.263607	  0.000000	 36.108501	  0.000000	  0.000000	  0.000000	  0.000000	  0.625597	  0.000000	 -0.448616	  0.000000	  0.000000	  0.000000
0.008500	272.121352	1850.809187	-56.785153	  0.757374	  0.000000	 -0.263541	  0.000000	 34.651445	  0.000000	  0.000000	  0.000000	  0.000000	  0.626989	  0.000000	 -0.446636	  0.000000	  0.000000	  0.000000
0.009000	273.836947	1835.426364	-54.837579	  0.756075	  0.000000	 -0.263475	  0.000000	 33.213136	  0.000000	  0.000000	  0.000000	  0.000000	  0.628381	  0.000000	 -0.444656	  0.000000	  0.000000	  0.000000
0.009500	275.535840	1819.818821	-52.920056	  0.754747	  0.000000	 -0.263410	  0.000000	 31.794906	  0.000000	  0.000000	  0.000000	  0.000000	  0.629774	  0.000000	 -0.442677	  0.000000	  0.000000	  0.000000
0.010000	277.216189	1803.989328	-51.033981	  0.753390	  0.000000	 -0.263345	  0.000000	 30.398051	  0.000000	  0.000000	  0.000000	  0.000000	  0.631166	  0.000000	 -0.440697	  0.000000	  0.000000	  0.000000
0.010500	278.876152	1787.940832	-49.180732	  0.752002	  0.000000	 -0.263282	  0.000000	 29.023828	  0.000000	  0.000000	  0.000000	  0.000000	  0.632497	  0.000000	 -0.438812	  0.000000	  0.000000	  0.000000
0.011000	280.513894	1771.676460	-47.361665	  0.750583	  0.000000	 -0.263219	  0.000000	 27.673448	  0.000000	  0.000000	  0.000000	  0.000000	  0.633828	  0.000000	 -0.436927	  0.000000	  0.000000	  0.000000
0.011500	282.127582	1755.199518	-45.578106	  0.749133	  0.000000	 -0.263158	  0.000000	 26.348074	  0.000000	  0.000000	  0.000000	  0.000000	  0.635159	  0.000000	 -0.435043	  0.000000	  0.000000	  0.000000
0.012000	283.715391	1738.513485	-43.831338	  0.747650	  0.000000	 -0.263098	  0.000000	 25.048815	  0.000000	  0.000000	  0.000000	  0.000000	  0.636490	  0.000000	 -0.433158	  0.000000	  0.000000	  0.000000
0.012500	285.275502	1721.622013	-42.122595	  0.746134	  0.000000	 -0.263038	  0.000000	 23.776726	  0.000000	  0.000000	  0.000000	  0.000000	  0.637822	  0.000000	 -0.431273	  0.000000	  0.000000	  0.000000
0.013000	286.806110	1704.528915	-40.453058	  0.744584	  0.000000	 -0.262981	  0.000000	 22.532804	  0.000000	  0.000000	  0.000000	  0.000000	  0.639153	  0.000000	 -0.429388	  0.000000	  0.000000	  0.000000
0.013500	288.305427	1687.238166	-38.823849	  0.742999	  0.000000	 -0.262924	  0.000000	 21.317993	  0.000000	  0.000000	  0.000000	  0.000000	  0.640484	  0.000000	 -0.427503	  0.000000	  0.000000	  0.000000
0.014000	289.771688	1669.753898	-37.236029	  0.741379	  0.000000	 -0.262869	  0.000000	 20.133184	  0.000000	  0.000000	  0.000000	  0.000000	  0.641815	  0.000000	 -0.425619	  0.000000	  0.000000	  0.000000
0.014500	291.203160	1652.080401	-35.690595	  0.739721	  0.000000	 -0.262815	  0.000000	 18.979217	  0.000000	  0.000000	  0.000000	  0.000000	  0.643146	  0.000000	 -0.423734	  0.000000	  0.000000	  0.000000
0.015000	292.598144	1634.222123	-34.188482	  0.738026	  0.000000	 -0.262763	  0.000000	 17.856890	  0.000000	  0.000000	  0.000000	  0.000000	  0.644477	  0.000000	 -0.421849	  0.000000	  0.000000	  0.000000
0.015500	293.954981	1616.183680	-32.730557	  0.736292	  0.000000	 -0.262713	  0.000000	 16.766957	  0.000000	  0.000000	  0.000000	  0.000000	  0.646258	  0.000000	 -0.419690	  0.000000	  0.000000	  0.000000
0.016000	295.272056	1597.969855	-31.317620	  0.734518	  0.000000	 -0.262665	  0.000000	 15.710127	  0.000000	  0.000000	  0.000000	  0.000000	  0.648040	  0.000000	 -0.417530	  0.000000	  0.000000	  0.000000
0.016500	296.547798	1579.585605	-29.950397	  0.732704	  0.000000	 -0.262618	  0.000000	 14.687068	  0.000000	  0.000000	  0.000000	  0.000000	  0.649822	  0.000000	 -0.415371	  0.000000	  0.000000	  0.000000
0.017000	297.780685	1561.036069	-28.629534	  0.730847	  0.000000	 -0.262573	  0.000000	 13.698396	  0.000000	  0.000000	  0.000000	  0.000000	  0.651603	  0.000000	 -0.413212	  0.000000	  0.000000	  0.000000
0.017500	298.969239	1542.326576	-27.355594	  0.728947	  0.000000	 -0.262531	  0.000000	 12.744671	  0.000000	  0.000000	  0.000000	  0.000000	  0.653385	  0.000000	 -0.411053	  0.000000	  0.000000	  0.000000
0.018000	300.112032	1523.462645	-26.129048	  0.727003	  0.000000	 -0.262490	  0.000000	 11.826390	  0.000000	  0.000000	  0.000000	  0.000000	  0.655166	  0.000000	 -0.408893	  0.000000	  0.000000	  0.000000
0.018500	301.207677	1504.449995	-24.950267	  0.725014	  0.000000	 -0.262452	  0.000000	 10.943980	  0.000000	  0.000000	  0.000000	  0.000000	  0.656948	  0.000000	 -0.406734	  0.000000	  0.000000	  0.000000
0.019000	302.254831	1485.294544	-23.819525	  0.722978	  0.000000	 -0.262415	  0.000000	 10.097791	  0.000000	  0.000000	  0.000000	  0.000000	  0.658729	  0.000000	 -0.404575	  0.000000	  0.000000	  0.000000
0.019500	303.252188	1466.002412	-22.736987	  0.720895	  0.000000	 -0.262381	  0.000000	  9.288092	  0.000000	  0.000000	  0.000000	  0.000000	  0.660511	  0.000000	 -0.402415	  0.000000	  0.000000	  0.000000
0.020000	304.198478	1446.579919	-21.702715	  0.718762	  0.000000	 -0.262349	  0.000000	  8.515065	  0.000000	  0.000000	  0.000000	  0.000000	  0.662292	  0.000000	 -0.400256	  0.000000	  0.000000	  0.000000
0.020500	305.092461	1427.033590	-20.716664	  0.716579	  0.000000	 -0.262320	  0.000000	  7.778802	  0.000000	  0.000000	  0.000000	  0.000000	  0.664021	  0.000000	 -0.398232	  0.000000	  0.000000	  0.000000
0.021000	305.932926	1407.370150	-19.778680	  0.714345	  0.000000	 -0.262293	  0.000000	  7.079302	  0.000000	  0.000000	  0.000000	  0.000000	  0.665750	  0.000000	 -0.396209	  0.000000	  0.000000	  0.000000
